# xmcd
#
# Track frame offsets:
#	150
#	16859
#	35940
#	55107
#	71373
#	89670
#	104416
#	119835
#	139574
#	155464
#	171687
#	186267
#	201359
#	219275
#	237608
#	252037
#	266720
#	279292
#
# Disc length: 3909 seconds
#
# Revision: 0
# Processed by: cddbd v1.5.1PL0 Copyright (c) Steve Scherf et al.
# Submitted via: audiograbber 1.83.01
#
DISCID=150f4312
DTITLE=2001-05 Country Radio - 2001-05 Country Radio
DYEAR=2001
DGENRE=Country
TTITLE0=Jo Dee Messina - Downtime
TTITLE1=Lonestar - I'm Already There
TTITLE2=Mark Wills - Loving Every Minute
TTITLE3=Lee Ann Womack - Why They Call It Falling
TTITLE4=Warren Brothers - Where Does It Hurt
TTITLE5=Alabama - Will You Marry Me
TTITLE6=Diamond Rio - Sweet Summer
TTITLE7=She Daisy - Still Holding Out For You
TTITLE8=Trick Pony - On A Night Like This
TTITLE9=Mary Chapin Carpenter - Simple Life(There's Nothing Wrong With You)
TTITLE10=Andy Griggs - How Cool Is That
TTITLE11=Clark Family Experience - Standing Still
TTITLE12=Meredith Edwards - The Bird Song
TTITLE13=Lisa Brokop and Hal Ketchum - Keep Mom and Dad In Love
TTITLE14=Mike Walker - Honey I Do
TTITLE15=Kristin Garner - Let's Burn It Down
TTITLE16=Kortney Kayle - Unbroken By you
TTITLE17=Mark McGuinn - Mrs Steven Rudy
EXTD=
EXTT0=
EXTT1=
EXTT2=
EXTT3=
EXTT4=
EXTT5=
EXTT6=
EXTT7=
EXTT8=
EXTT9=
EXTT10=
EXTT11=
EXTT12=
EXTT13=
EXTT14=
EXTT15=
EXTT16=
EXTT17=
PLAYORDER=
